<svg xmlns="http://www.w3.org/2000/svg" viewBox="0 0 512 512" id="location"><path fill-rule="evenodd" d="M457.457 440.463C457.457 475.554 367.262 504 256 504S54.543 475.554 54.543 440.463c0-27.566 55.666-51.028 133.475-59.825 9.324 12.538 18.423 24.389 26.899 35.24-29.606 4.208-49.899 12.82-49.899 22.762 0 14.086 40.734 25.505 90.982 25.505s90.982-11.419 90.982-25.505c0-9.933-20.257-18.539-49.821-22.751 8.526-10.867 17.662-22.711 27.014-35.229 77.708 8.813 133.282 32.259 133.282 59.803zM256 8C167.988 8 96.64 79.348 96.64 167.36c0 73.139 106.233 208.215 155.462 269.667.979 1.223 2.328 1.87 3.897 1.87 1.567.003 2.915-.645 3.897-1.865 47.19-58.805 155.463-194.524 155.463-269.672C415.36 79.348 344.012 8 256 8zm0 75.664c46.116 0 83.502 37.386 83.502 83.502 0 46.117-37.385 83.502-83.502 83.502s-83.502-37.385-83.502-83.502c0-46.116 37.385-83.502 83.502-83.502z" clip-rule="evenodd" fill="#00c6ff" class="color000000 svgShape"></path></svg>